# xmcd
#
# Track frame offsets:
#	150
#	13740
#	27415
#	42875
#	54720
#	68313
#	84543
#	95923
#	108638
#	120170
#	130670
#	146160
#	162188
#	176268
#
# Disc length: 2520 seconds
#
# Revision: 0
# Processed by: cddbd v1.4PL0 Copyright (c) Steve Scherf et al.
# Submitted via: dBpowerAMP V4.0
#
DISCID=b509d60e
DTITLE=ben steneker - heart to heart
DYEAR=1900
DGENRE=
TTITLE0=long forgotten dreams
TTITLE1=heart to heart
TTITLE2=roll on mississippi
TTITLE3=if it is love
TTITLE4=red river rosie
TTITLE5=seven spanish angels
TTITLE6=will you be there
TTITLE7=love is fire
TTITLE8=I can see it by your face
TTITLE9=home is where the hurt is
TTITLE10=midnight cowboy
TTITLE11=seasons of the heart
TTITLE12=too old to die young
TTITLE13=wild desert rose
EXTD=heart to heart
EXTT0=
EXTT1=
EXTT2=
EXTT3=
EXTT4=
EXTT5=
EXTT6=
EXTT7=
EXTT8=
EXTT9=
EXTT10=
EXTT11=
EXTT12=
EXTT13=
PLAYORDER=
